<svg width="48" height="48" viewBox="0 0 48 48" fill="none" xmlns="http://www.w3.org/2000/svg">
<path d="M20 16H28C30.2091 16 32 17.7909 32 20C32 22.2091 30.2091 24 28 24M20 16V24M20 16H16M20 16V12M28 24H20M28 24C30.2091 24 32 25.7909 32 28C32 30.2091 30.2091 32 28 32H20M20 24V32M20 32H16M20 32V36M26 16V12M26 36V32M42 24C42 33.9411 33.9411 42 24 42C14.0589 42 6 33.9411 6 24C6 14.0589 14.0589 6 24 6C33.9411 6 42 14.0589 42 24Z" stroke="white" stroke-width="2" stroke-linecap="round" stroke-linejoin="round"/>
</svg>
