<svg width="48" height="48" viewBox="0 0 48 48" fill="none" xmlns="http://www.w3.org/2000/svg">
<path d="M28 21C28 23.7614 23.5228 26 18 26C12.4772 26 8 23.7614 8 21M28 21C28 18.2386 23.5228 16 18 16C12.4772 16 8 18.2386 8 21M28 21V38C28 40.2091 23.5228 42 18 42C12.4772 42 8 40.2091 8 38V21M28 30C28 32.2091 23.5228 34 18 34C12.4772 34 8 32.2091 8 30M40 11C40 8.23858 35.5228 6 30 6C26.0418 6 22.6207 7.14985 21 8.81794M40 11C40 12.8507 37.989 14.4666 35 15.3311M40 11V28C40 29.4806 37.989 30.7733 35 31.4649M40 20C40 21.5134 37.8989 22.8304 34.7999 23.51" stroke="white" stroke-width="2" stroke-linecap="round" stroke-linejoin="round"/>
</svg>
