<svg width="51" height="48" viewBox="0 0 51 48" fill="none" xmlns="http://www.w3.org/2000/svg">
<path d="M19.9934 14V20H21.9934V14H19.9934ZM20.9934 19H14.6954V21H20.9934V19ZM14.6954 19C11.7232 19 9.39746 16.7163 9.39746 14H7.39746C7.39746 17.9111 10.7111 21 14.6954 21V19ZM14.6954 9C17.6676 9 19.9934 11.2837 19.9934 14H21.9934C21.9934 10.0889 18.6798 7 14.6954 7V9ZM14.6954 7C10.7111 7 7.39746 10.0889 7.39746 14H9.39746C9.39746 11.2837 11.7232 9 14.6954 9V7ZM21.9934 34V28H19.9934V34H21.9934ZM20.9934 27H14.6954V29H20.9934V27ZM14.6954 27C10.7111 27 7.39746 30.0889 7.39746 34H9.39746C9.39746 31.2837 11.7232 29 14.6954 29V27ZM14.6954 41C18.6798 41 21.9934 37.9111 21.9934 34H19.9934C19.9934 36.7163 17.6676 39 14.6954 39V41ZM14.6954 39C11.7232 39 9.39746 36.7163 9.39746 34H7.39746C7.39746 37.9111 10.7111 41 14.6954 41V39ZM35.6887 19H29.3907V21H35.6887V19ZM30.3907 20V14H28.3907V20H30.3907ZM40.9866 14C40.9866 16.7163 38.6609 19 35.6887 19V21C39.673 21 42.9866 17.9111 42.9866 14H40.9866ZM35.6887 9C38.6609 9 40.9866 11.2837 40.9866 14H42.9866C42.9866 10.0889 39.673 7 35.6887 7V9ZM35.6887 7C31.7043 7 28.3907 10.0889 28.3907 14H30.3907C30.3907 11.2837 32.7164 9 35.6887 9V7ZM35.6887 27H29.3907V29H35.6887V27ZM28.3907 28V34H30.3907V28H28.3907ZM42.9866 34C42.9866 30.0889 39.673 27 35.6887 27V29C38.6609 29 40.9866 31.2837 40.9866 34H42.9866ZM35.6887 41C39.673 41 42.9866 37.9111 42.9866 34H40.9866C40.9866 36.7163 38.6609 39 35.6887 39V41ZM35.6887 39C32.7164 39 30.3907 36.7163 30.3907 34H28.3907C28.3907 37.9111 31.7043 41 35.6887 41V39ZM19.9934 20V28H21.9934V20H19.9934ZM28.3907 20V28H30.3907V20H28.3907ZM29.3907 19H20.9934V21H29.3907V19ZM29.3907 27H20.9934V29H29.3907V27Z" fill="#131A29"/>
</svg>
