<svg width="48" height="48" viewBox="0 0 48 48" fill="none" xmlns="http://www.w3.org/2000/svg">
<path d="M22.218 31.092C22 31.5198 22 32.0799 22 33.2V36.8C22 37.9201 22 38.4802 22.218 38.908C22.4097 39.2843 22.7157 39.5903 23.092 39.782C23.5198 40 24.0799 40 25.2 40H28.8C29.9201 40 30.4802 40 30.908 39.782C31.2843 39.5903 31.5903 39.2843 31.782 38.908C32 38.4802 32 37.9201 32 36.8V33.2C32 32.0799 32 31.5198 31.782 31.092C31.5903 30.7157 31.2843 30.4097 30.908 30.218C30.4802 30 29.9201 30 28.8 30H25.2C24.0799 30 23.5198 30 23.092 30.218C22.7157 30.4097 22.4097 30.7157 22.218 31.092ZM22.218 31.092L15.4772 19.3483M16 15H32M9.2 20H12.8C13.9201 20 14.4802 20 14.908 19.782C15.2843 19.5903 15.5903 19.2843 15.782 18.908C16 18.4802 16 17.9201 16 16.8V13.2C16 12.0799 16 11.5198 15.782 11.092C15.5903 10.7157 15.2843 10.4097 14.908 10.218C14.4802 10 13.9201 10 12.8 10H9.2C8.07989 10 7.51984 10 7.09202 10.218C6.71569 10.4097 6.40973 10.7157 6.21799 11.092C6 11.5198 6 12.0799 6 13.2V16.8C6 17.9201 6 18.4802 6.21799 18.908C6.40973 19.2843 6.71569 19.5903 7.09202 19.782C7.51984 20 8.07989 20 9.2 20ZM35.2 20H38.8C39.9201 20 40.4802 20 40.908 19.782C41.2843 19.5903 41.5903 19.2843 41.782 18.908C42 18.4802 42 17.9201 42 16.8V13.2C42 12.0799 42 11.5198 41.782 11.092C41.5903 10.7157 41.2843 10.4097 40.908 10.218C40.4802 10 39.9201 10 38.8 10H35.2C34.0799 10 33.5198 10 33.092 10.218C32.7157 10.4097 32.4097 10.7157 32.218 11.092C32 11.5198 32 12.0799 32 13.2V16.8C32 17.9201 32 18.4802 32.218 18.908C32.4097 19.2843 32.7157 19.5903 33.092 19.782C33.5198 20 34.0799 20 35.2 20Z" stroke="white" stroke-width="2" stroke-linecap="round" stroke-linejoin="round"/>
</svg>
