<svg width="48" height="48" viewBox="0 0 48 48" fill="none" xmlns="http://www.w3.org/2000/svg">
<path d="M32 37C32 39.7614 34.2386 42 37 42C39.7614 42 42 39.7614 42 37C42 34.2386 39.7614 32 37 32M32 37C32 34.2386 34.2386 32 37 32M32 37H16M37 32V16M16 37C16 39.7614 13.7614 42 11 42C8.23858 42 6 39.7614 6 37C6 34.2386 8.23858 32 11 32M16 37C16 34.2386 13.7614 32 11 32M11 32V16M11 16C8.23858 16 6 13.7614 6 11C6 8.23858 8.23858 6 11 6C13.7614 6 16 8.23858 16 11M11 16C13.7614 16 16 13.7614 16 11M16 11H32M37 16C34.2386 16 32 13.7614 32 11M37 16C39.7614 16 42 13.7614 42 11C42 8.23858 39.7614 6 37 6C34.2386 6 32 8.23858 32 11" stroke="#131A29" stroke-width="2" stroke-linecap="round" stroke-linejoin="round"/>
</svg>
