<svg width="48" height="48" viewBox="0 0 48 48" fill="none" xmlns="http://www.w3.org/2000/svg">
<path d="M10 19.5551V32.4002C10 35.7605 10 37.4406 10.654 38.7241C11.2292 39.8531 12.1471 40.771 13.2761 41.3462C14.5595 42.0002 16.2397 42.0002 19.6 42.0002H28.4C31.7603 42.0002 33.4405 42.0002 34.7239 41.3462C35.8529 40.771 36.7708 39.8531 37.346 38.7241C38 37.4406 38 35.7605 38 32.4002V10.0002M42 24.0002L31.1335 11.9281C28.6622 9.18257 27.4265 7.80981 25.9713 7.30301C24.6931 6.85788 23.302 6.85798 22.0239 7.3033C20.5687 7.81031 19.3332 9.18326 16.8623 11.9292L6 24.0002" stroke="white" stroke-width="2" stroke-linecap="round" stroke-linejoin="round"/>
</svg>
