<svg width="273" height="340" viewBox="0 0 273 340" fill="none" xmlns="http://www.w3.org/2000/svg">
<rect width="259" height="340" rx="8" fill="#6561AA"/>
<path d="M46.9831 243.444C47.9731 243.444 48.8581 242.634 48.8581 241.434C48.8581 240.219 47.9731 239.409 46.9831 239.409C45.9781 239.409 45.1081 240.219 45.1081 241.434C45.1081 242.634 45.9781 243.444 46.9831 243.444ZM64.3896 240.159V241.044H66.7446V241.794H67.8996V233.739H66.7446V240.159H64.3896ZM62.5596 234.834C63.6546 234.834 64.3746 235.269 64.3746 235.959C64.3746 236.649 63.6546 237.084 62.5596 237.084C61.4646 237.084 60.7596 236.649 60.7596 235.959C60.7596 235.269 61.4646 234.834 62.5596 234.834ZM62.5596 237.969C64.3146 237.969 65.4846 237.204 65.4846 235.959C65.4846 234.729 64.3146 233.964 62.5596 233.964C60.8196 233.964 59.6496 234.729 59.6496 235.959C59.6496 237.204 60.8196 237.969 62.5596 237.969ZM62.0046 241.794H63.1746V239.559C64.1796 239.484 65.1996 239.364 66.1146 239.184L66.0246 238.329C63.7896 238.689 60.7896 238.719 58.9296 238.719L59.0796 239.679C59.9046 239.679 60.9246 239.679 62.0046 239.619V241.794ZM69.1446 245.799H62.5146V244.524H69.1446V245.799ZM69.1446 243.579H62.5146V242.319H61.2996V246.774H70.3446V242.319H69.1446V243.579ZM69.1746 233.499V241.824H70.3446V233.499H69.1746ZM72.1884 248.529H73.1934L77.6784 233.934H76.6884L72.1884 248.529ZM79.9375 237.279C79.9375 236.079 80.7625 235.239 81.8875 235.239C82.9975 235.239 83.8225 236.079 83.8225 237.279C83.8225 238.479 82.9975 239.334 81.8875 239.334C80.7625 239.334 79.9375 238.479 79.9375 237.279ZM84.9475 237.279C84.9475 235.479 83.6575 234.249 81.8875 234.249C80.1025 234.249 78.8275 235.479 78.8275 237.279C78.8275 239.094 80.1025 240.339 81.8875 240.339C83.6575 240.339 84.9475 239.094 84.9475 237.279ZM88.8325 245.769H82.4425V244.029H88.8325V245.769ZM88.8325 243.054H82.4425V241.434H81.2125V246.774H90.0475V241.434H88.8325V243.054ZM88.8625 233.514V236.589H87.1525V233.769H85.9825V240.744H87.1525V237.609H88.8625V240.849H90.0475V233.514H88.8625ZM96.6408 234.954V235.944H101.696C101.441 239.139 99.6408 241.719 96.0258 243.444L96.6858 244.449C101.156 242.259 102.941 238.839 102.941 234.954H96.6408ZM105.656 233.499V246.954H106.886V233.499H105.656ZM115.225 240.144H111.415V237.684H115.225V240.144ZM116.425 234.474H115.225V236.724H111.415V234.474H110.2V241.134H116.425V234.474ZM112.945 242.439H111.715V246.654H120.685V245.649H112.945V242.439ZM120.085 237.579V233.514H118.855V243.384H120.085V238.614H122.065V237.579H120.085ZM138.408 240.069C136.053 239.649 133.488 237.669 133.488 235.434V234.399H132.198V235.434C132.198 237.669 129.648 239.649 127.293 240.069L127.803 241.089C129.873 240.654 131.973 239.259 132.843 237.339C133.713 239.259 135.828 240.654 137.883 241.089L138.408 240.069ZM133.458 244.194V240.924H132.228V244.194H126.798V245.199H139.008V244.194H133.458ZM150.437 240.564H151.682V233.514H150.437V234.879H147.797V235.854H150.437V237.294H147.797V238.269H150.437V240.564ZM148.457 239.379C146.522 238.719 145.157 237.054 145.157 235.254V233.844H143.942V235.254C143.942 237.129 142.592 238.929 140.597 239.664L141.227 240.594C142.787 240.024 144.002 238.794 144.572 237.264C145.157 238.659 146.327 239.784 147.827 240.339L148.457 239.379ZM144.257 245.814V244.389H151.682V241.224H143.012V242.169H150.467V243.474H143.042V246.774H152.192V245.814H144.257ZM46.9831 265.444C47.9731 265.444 48.8581 264.634 48.8581 263.434C48.8581 262.219 47.9731 261.409 46.9831 261.409C45.9781 261.409 45.1081 262.219 45.1081 263.434C45.1081 264.634 45.9781 265.444 46.9831 265.444ZM59.7246 267.844H61.0446V262.069C61.0446 260.914 60.9396 259.744 60.8796 258.634H60.9396L62.1246 260.899L66.1296 267.844H67.5546V256.834H66.2346V262.564C66.2346 263.704 66.3396 264.934 66.4146 266.044H66.3396L65.1696 263.779L61.1646 256.834H59.7246V267.844ZM70.5498 267.844H71.9448V262.909H76.1448V261.739H71.9448V258.019H76.8948V256.834H70.5498V267.844ZM81.1212 267.844H82.5162V258.019H85.8462V256.834H77.7912V258.019H81.1212V267.844ZM91.0402 256.954V257.944H95.9452C95.7202 261.094 94.0552 263.659 90.4402 265.429L91.1152 266.389C95.5852 264.184 97.1752 260.779 97.1752 256.954H91.0402ZM100.295 255.514V260.899H97.1452V261.904H100.295V268.954H101.525V255.514H100.295ZM105.889 261.694H109.714V256.969H104.659V257.974H108.514V260.689H104.704V265.729H105.589C107.254 265.729 108.769 265.669 110.629 265.354L110.539 264.334C108.829 264.634 107.419 264.694 105.889 264.709V261.694ZM114.499 255.499V260.809H112.594V255.799H111.439V268.264H112.594V261.814H114.499V268.939H115.684V255.499H114.499ZM130.252 256.519H127.012V255.364H125.782V256.519H122.527V257.404H130.252V256.519ZM124.417 259.594C124.417 258.994 125.182 258.634 126.397 258.634C127.597 258.634 128.362 258.994 128.362 259.594C128.362 260.194 127.597 260.569 126.397 260.569C125.182 260.569 124.417 260.194 124.417 259.594ZM130.657 261.829C129.502 261.979 128.242 262.084 127.012 262.144V261.349C128.557 261.214 129.532 260.584 129.532 259.594C129.532 258.484 128.287 257.824 126.397 257.824C124.477 257.824 123.247 258.484 123.247 259.594C123.247 260.599 124.222 261.229 125.782 261.349V262.174C124.492 262.219 123.247 262.219 122.197 262.219L122.332 263.134C124.687 263.134 127.867 263.119 130.732 262.609L130.657 261.829ZM125.212 266.779H132.682V264.034H123.967V264.904H131.467V265.954H124.012V268.804H133.192V267.919H125.212V266.779ZM132.682 258.934V255.499H131.452V263.449H132.682V259.969H134.662V258.934H132.682ZM145.896 263.464H147.141V255.514H145.896V258.364H142.971V259.369H145.896V263.464ZM143.946 261.874C141.981 261.184 140.676 259.519 140.676 257.599V256.264H139.446V257.644C139.446 259.699 138.111 261.499 136.041 262.234L136.686 263.239C138.306 262.624 139.521 261.409 140.091 259.819C140.676 261.214 141.816 262.279 143.286 262.834L143.946 261.874ZM142.701 267.964C140.676 267.964 139.446 267.379 139.446 266.404C139.446 265.414 140.676 264.829 142.701 264.829C144.726 264.829 145.956 265.414 145.956 266.404C145.956 267.379 144.726 267.964 142.701 267.964ZM142.701 263.869C139.941 263.869 138.216 264.784 138.216 266.404C138.216 268.009 139.941 268.939 142.701 268.939C145.461 268.939 147.186 268.009 147.186 266.404C147.186 264.784 145.461 263.869 142.701 263.869ZM157.97 257.134H154.58V255.514H153.35V257.134H149.93V258.109H157.97V257.134ZM151.955 261.394C151.955 260.464 152.765 259.849 153.965 259.849C155.165 259.849 155.975 260.464 155.975 261.394C155.975 262.324 155.165 262.924 153.965 262.924C152.765 262.924 151.955 262.324 151.955 261.394ZM154.58 263.854C156.125 263.659 157.145 262.729 157.145 261.394C157.145 259.879 155.84 258.904 153.965 258.904C152.09 258.904 150.785 259.879 150.785 261.394C150.785 262.729 151.805 263.659 153.35 263.854V265.324C152.045 265.369 150.785 265.369 149.705 265.369L149.87 266.404C152.225 266.404 155.39 266.374 158.27 265.864L158.195 264.949C157.04 265.129 155.795 265.219 154.58 265.279V263.854ZM162.32 261.214H160.22V255.499H158.99V268.954H160.22V262.249H162.32V261.214ZM46.9831 287.444C47.9731 287.444 48.8581 286.634 48.8581 285.434C48.8581 284.219 47.9731 283.409 46.9831 283.409C45.9781 283.409 45.1081 284.219 45.1081 285.434C45.1081 286.634 45.9781 287.444 46.9831 287.444ZM61.7496 289.844H63.3546L66.8496 278.834H65.4396L63.6696 284.804C63.2796 286.094 63.0096 287.144 62.6046 288.434H62.5446C62.1246 287.144 61.8696 286.094 61.4796 284.804L59.6946 278.834H58.2396L61.7496 289.844ZM68.3525 289.844H69.7475V285.179H71.7275L74.3975 289.844H75.9725L73.1525 285.029C74.6525 284.669 75.6425 283.649 75.6425 281.939C75.6425 279.644 74.0375 278.834 71.8025 278.834H68.3525V289.844ZM69.7475 284.054V279.974H71.5925C73.3175 279.974 74.2625 280.484 74.2625 281.939C74.2625 283.364 73.3175 284.054 71.5925 284.054H69.7475ZM81.3332 278.954V279.944H86.3882C86.1332 283.139 84.3332 285.719 80.7182 287.444L81.3782 288.449C85.8482 286.259 87.6332 282.839 87.6332 278.954H81.3332ZM90.3482 277.499V290.954H91.5782V277.499H90.3482ZM95.132 278.954V279.944H100.187C99.932 283.139 98.132 285.719 94.517 287.444L95.177 288.449C99.647 286.259 101.432 282.839 101.432 278.954H95.132ZM104.147 277.499V290.954H105.377V277.499H104.147ZM114.995 281.864H121.865V284.339H114.995V281.864ZM119.045 288.224V285.329H123.065V278.459H121.865V280.859H114.995V278.459H113.78V285.329H117.8V288.224H112.34V289.229H124.535V288.224H119.045ZM135.544 289.784H128.929V287.939H135.544V289.784ZM135.544 286.979H128.929V285.209H127.714V290.774H136.759V285.209H135.544V286.979ZM136.414 282.989C136.774 281.324 136.774 280.124 136.774 279.089V278.114H127.684V279.119H135.559C135.559 280.139 135.559 281.339 135.184 282.989H126.124V283.994H138.349V282.989H136.414ZM152.137 278.729H148.897V277.409H147.667V278.729H144.412V279.659H152.137V278.729ZM146.302 282.149C146.302 281.444 147.067 281.009 148.282 281.009C149.467 281.009 150.247 281.444 150.247 282.149C150.247 282.854 149.467 283.304 148.282 283.304C147.067 283.304 146.302 282.854 146.302 282.149ZM152.542 284.729C151.372 284.909 150.127 284.999 148.897 285.059V284.129C150.442 283.964 151.417 283.244 151.417 282.149C151.417 280.919 150.157 280.154 148.282 280.154C146.377 280.154 145.132 280.919 145.132 282.149C145.132 283.259 146.107 283.979 147.667 284.129V285.104C146.377 285.149 145.147 285.149 144.082 285.149L144.217 286.139C146.572 286.124 149.752 286.109 152.632 285.614L152.542 284.729ZM145.717 288.179H153.337V290.954H154.567V287.204H145.717V288.179ZM156.532 281.579H154.567V277.514H153.337V286.529H154.567V282.599H156.532V281.579ZM165.786 284.264C163.806 283.559 162.471 281.849 162.471 280.004V278.309H161.241V279.974C161.241 282.059 159.936 283.859 157.881 284.594L158.526 285.569C160.131 284.969 161.331 283.739 161.886 282.149C162.486 283.559 163.656 284.684 165.171 285.239L165.786 284.264ZM161.271 286.484H160.041V290.654H168.966V289.649H161.271V286.484ZM168.381 281.624V277.484H167.151V287.429H168.381V282.644H170.361V281.624H168.381Z" fill="white"/>
<path d="M42.7246 108.438H38.9646V99.9979H42.7246V108.438ZM46.9046 103.378H44.2446V98.6979H37.4246V109.738H44.2446V104.738H46.9046V113.658H48.4646V97.0179H46.9046V103.378ZM50.4646 96.6179V114.538H52.0246V96.6179H50.4646ZM57.603 104.598H63.923V103.278H57.603V99.5779H64.323V98.2379H55.963V110.238H57.363C60.743 110.238 63.063 110.118 65.823 109.638L65.663 108.318C63.023 108.758 60.783 108.898 57.603 108.898V104.598ZM71.943 103.818H68.983V96.6179H67.343V114.538H68.983V105.198H71.943V103.818ZM80.9215 108.718H75.9215V103.998H80.9215V108.718ZM86.7215 96.6179V103.278H82.5215V98.0379H80.9215V102.698H75.9215V98.0379H74.3015V110.058H82.5215V104.598H86.7215V114.598H88.3615V96.6179H86.7215ZM107.44 105.638C104.3 105.038 100.9 102.318 100.9 99.2579V97.8779H99.1799V99.2579C99.1799 102.318 95.7999 105.018 92.6599 105.638L93.3999 106.998C96.0999 106.358 98.8999 104.438 100.04 101.818C101.18 104.458 103.98 106.378 106.7 106.998L107.44 105.638ZM91.9799 110.798V112.158H108.24V110.798H91.9799ZM115.551 113.078H123.591V111.558H120.651V98.3979H119.251C118.451 98.8779 117.511 99.2179 116.211 99.4579V100.618H118.811V111.558H115.551V113.078ZM127.665 113.338C128.385 113.338 128.985 112.778 128.985 111.958C128.985 111.118 128.385 110.538 127.665 110.538C126.945 110.538 126.345 111.118 126.345 111.958C126.345 112.778 126.945 113.338 127.665 113.338ZM136.011 113.338C138.791 113.338 140.571 110.798 140.571 105.698C140.571 100.618 138.791 98.1379 136.011 98.1379C133.211 98.1379 131.431 100.598 131.431 105.698C131.431 110.798 133.211 113.338 136.011 113.338ZM136.011 111.878C134.331 111.878 133.211 110.018 133.211 105.698C133.211 101.418 134.331 99.5979 136.011 99.5979C137.671 99.5979 138.791 101.418 138.791 105.698C138.791 110.018 137.671 111.878 136.011 111.878ZM153.438 98.1779H151.818V101.398C151.818 104.798 149.638 108.238 146.998 109.498L147.998 110.838C150.098 109.758 151.818 107.518 152.638 104.818C153.498 107.378 155.218 109.498 157.258 110.498L158.238 109.178C155.578 107.978 153.438 104.678 153.438 101.398V98.1779ZM160.118 96.6179V114.598H161.758V96.6179H160.118ZM167.736 100.138H172.796V98.7979H166.116V110.138H167.296C169.976 110.138 171.796 110.058 173.936 109.598L173.796 108.238C171.836 108.658 170.136 108.758 167.736 108.778V100.138ZM179.136 96.6179V103.818H176.596V97.0179H175.056V113.658H176.596V105.158H179.136V114.558H180.716V96.6179H179.136Z" fill="white"/>
<path d="M36.7566 63.3247H48.6606V60.3487H44.8206C43.9806 60.3487 42.8046 60.4447 41.9166 60.5407C45.1566 57.3727 47.8206 53.9167 47.8206 50.7007C47.8206 47.3887 45.5886 45.2287 42.2286 45.2287C39.8046 45.2287 38.2206 46.1647 36.5886 47.9167L38.5086 49.8367C39.4206 48.8527 40.4766 48.0127 41.7726 48.0127C43.4766 48.0127 44.4366 49.0927 44.4366 50.8927C44.4366 53.6287 41.5806 56.9647 36.7566 61.2847V63.3247ZM56.9374 63.6607C60.5614 63.6607 62.9374 60.4927 62.9374 54.3727C62.9374 48.2527 60.5614 45.2287 56.9374 45.2287C53.3134 45.2287 50.9134 48.2287 50.9134 54.3727C50.9134 60.4927 53.3134 63.6607 56.9374 63.6607ZM56.9374 60.9007C55.4014 60.9007 54.2494 59.3647 54.2494 54.3727C54.2494 49.4047 55.4014 47.9647 56.9374 47.9647C58.4734 47.9647 59.6014 49.4047 59.6014 54.3727C59.6014 59.3647 58.4734 60.9007 56.9374 60.9007ZM65.0222 63.3247H76.9262V60.3487H73.0862C72.2462 60.3487 71.0702 60.4447 70.1822 60.5407C73.4222 57.3727 76.0862 53.9167 76.0862 50.7007C76.0862 47.3887 73.8542 45.2287 70.4942 45.2287C68.0702 45.2287 66.4862 46.1647 64.8542 47.9167L66.7742 49.8367C67.6862 48.8527 68.7422 48.0127 70.0382 48.0127C71.7422 48.0127 72.7022 49.0927 72.7022 50.8927C72.7022 53.6287 69.8462 56.9647 65.0222 61.2847V63.3247ZM85.203 63.6607C88.827 63.6607 91.203 60.4927 91.203 54.3727C91.203 48.2527 88.827 45.2287 85.203 45.2287C81.579 45.2287 79.179 48.2287 79.179 54.3727C79.179 60.4927 81.579 63.6607 85.203 63.6607ZM85.203 60.9007C83.667 60.9007 82.515 59.3647 82.515 54.3727C82.515 49.4047 83.667 47.9647 85.203 47.9647C86.739 47.9647 87.867 49.4047 87.867 54.3727C87.867 59.3647 86.739 60.9007 85.203 60.9007ZM101.664 56.6527C102.96 56.6527 104.328 55.9087 105.552 53.9647L103.704 52.5487C103.128 53.6047 102.48 54.1327 101.712 54.1327C100.224 54.1327 99.2159 52.0207 97.0079 52.0207C95.6879 52.0207 94.3439 52.7647 93.0959 54.7327L94.9439 56.1247C95.5199 55.0687 96.1919 54.5407 96.9359 54.5407C98.4479 54.5407 99.4559 56.6527 101.664 56.6527Z" fill="white"/>
<path d="M265.889 177L271.935 170.612C271.971 170.574 271.971 170.514 271.934 170.476L265.889 164.284" stroke="#6561AA" stroke-width="1.97145" stroke-linecap="round"/>
<rect width="1.77465" height="2.07042" transform="matrix(1 0 0 -1 265 171.677)" fill="#6561AA"/>
</svg>
