<svg width="48" height="48" viewBox="0 0 48 48" fill="none" xmlns="http://www.w3.org/2000/svg">
<path d="M23 18.0002L20 24.0002H28L25 30.0002M40 24.0002C40 32.9225 29.0801 39.3877 25.2828 41.3662C24.8721 41.5802 24.6668 41.6872 24.3819 41.7426C24.16 41.7858 23.84 41.7858 23.6181 41.7426C23.3332 41.6872 23.1279 41.5802 22.7172 41.3662C18.9199 39.3877 8 32.9225 8 24.0002V16.4354C8 14.8364 8 14.0369 8.26152 13.3496C8.49255 12.7425 8.86797 12.2008 9.35532 11.7713C9.90699 11.2851 10.6556 11.0044 12.1528 10.4429L22.8764 6.42158C23.2922 6.26566 23.5001 6.1877 23.714 6.15679C23.9037 6.12938 24.0963 6.12938 24.286 6.15679C24.4999 6.1877 24.7078 6.26566 25.1236 6.42158L35.8472 10.4429C37.3444 11.0044 38.093 11.2851 38.6447 11.7713C39.132 12.2008 39.5075 12.7425 39.7385 13.3496C40 14.0369 40 14.8364 40 16.4354V24.0002Z" stroke="#131A29" stroke-width="2" stroke-linecap="round" stroke-linejoin="round"/>
</svg>
