<svg width="64" height="64" viewBox="0 0 64 64" fill="none" xmlns="http://www.w3.org/2000/svg">
<path d="M37.3332 28C37.3332 31.6819 31.3636 34.6667 23.9998 34.6667C16.636 34.6667 10.6665 31.6819 10.6665 28M37.3332 28C37.3332 24.3181 31.3636 21.3333 23.9998 21.3333C16.636 21.3333 10.6665 24.3181 10.6665 28M37.3332 28V50.6667C37.3332 53.6122 31.3636 56 23.9998 56C16.636 56 10.6665 53.6122 10.6665 50.6667V28M37.3332 40C37.3332 42.9455 31.3636 45.3333 23.9998 45.3333C16.636 45.3333 10.6665 42.9455 10.6665 40M53.3332 14.6667C53.3332 10.9848 47.3636 8 39.9998 8C34.7222 8 30.1608 9.53313 27.9998 11.7572M53.3332 14.6667C53.3332 17.1343 50.6518 19.2888 46.6665 20.4415M53.3332 14.6667V37.3333C53.3332 39.3074 50.6518 41.031 46.6665 41.9532M53.3332 26.6667C53.3332 28.6845 50.5317 30.4406 46.3997 31.3466" stroke="white" stroke-width="2" stroke-linecap="round" stroke-linejoin="round"/>
</svg>
