<svg width="64" height="64" viewBox="0 0 64 64" fill="none" xmlns="http://www.w3.org/2000/svg">
<path d="M29.624 41.4562C29.3333 42.0266 29.3333 42.7734 29.3333 44.2668V49.0668C29.3333 50.5603 29.3333 51.307 29.624 51.8775C29.8796 52.3792 30.2876 52.7872 30.7894 53.0428C31.3598 53.3335 32.1065 53.3335 33.6 53.3335H38.4C39.8935 53.3335 40.6402 53.3335 41.2106 53.0428C41.7124 52.7872 42.1204 52.3792 42.376 51.8775C42.6667 51.307 42.6667 50.5603 42.6667 49.0668V44.2668C42.6667 42.7734 42.6667 42.0266 42.376 41.4562C42.1204 40.9544 41.7124 40.5465 41.2106 40.2908C40.6402 40.0002 39.8935 40.0002 38.4 40.0002H33.6C32.1065 40.0002 31.3598 40.0002 30.7894 40.2908C30.2876 40.5465 29.8796 40.9544 29.624 41.4562ZM29.624 41.4562L20.6363 25.7979M21.3333 20.0002H42.6667M12.2667 26.6668H17.0667C18.5601 26.6668 19.3069 26.6668 19.8773 26.3762C20.3791 26.1205 20.787 25.7126 21.0427 25.2108C21.3333 24.6404 21.3333 23.8936 21.3333 22.4002V17.6002C21.3333 16.1067 21.3333 15.36 21.0427 14.7895C20.787 14.2878 20.3791 13.8798 19.8773 13.6241C19.3069 13.3335 18.5601 13.3335 17.0667 13.3335H12.2667C10.7732 13.3335 10.0265 13.3335 9.45603 13.6241C8.95426 13.8798 8.54631 14.2878 8.29065 14.7895C8 15.36 8 16.1067 8 17.6002V22.4002C8 23.8936 8 24.6404 8.29065 25.2108C8.54631 25.7126 8.95426 26.1205 9.45603 26.3762C10.0265 26.6668 10.7732 26.6668 12.2667 26.6668ZM46.9333 26.6668H51.7333C53.2268 26.6668 53.9735 26.6668 54.544 26.3762C55.0457 26.1205 55.4537 25.7126 55.7094 25.2108C56 24.6404 56 23.8936 56 22.4002V17.6002C56 16.1067 56 15.36 55.7094 14.7895C55.4537 14.2878 55.0457 13.8798 54.544 13.6241C53.9735 13.3335 53.2268 13.3335 51.7333 13.3335H46.9333C45.4399 13.3335 44.6931 13.3335 44.1227 13.6241C43.6209 13.8798 43.213 14.2878 42.9573 14.7895C42.6667 15.36 42.6667 16.1067 42.6667 17.6002V22.4002C42.6667 23.8936 42.6667 24.6404 42.9573 25.2108C43.213 25.7126 43.6209 26.1205 44.1227 26.3762C44.6931 26.6668 45.4399 26.6668 46.9333 26.6668Z" stroke="white" stroke-width="2" stroke-linecap="round" stroke-linejoin="round"/>
</svg>
