<svg width="64" height="64" viewBox="0 0 64 64" fill="none" xmlns="http://www.w3.org/2000/svg">
<path d="M13.3333 26.0731V43.1999C13.3333 47.6803 13.3333 49.9205 14.2053 51.6318C14.9723 53.1371 16.1961 54.3609 17.7014 55.1279C19.4127 55.9999 21.6529 55.9999 26.1333 55.9999H37.8667C42.3471 55.9999 44.5873 55.9999 46.2986 55.1279C47.8039 54.3609 49.0277 53.1371 49.7947 51.6318C50.6667 49.9205 50.6667 47.6803 50.6667 43.1999V13.3332M56 31.9999L41.5114 15.9038C38.2163 12.2431 36.5687 10.4127 34.6284 9.73702C32.9241 9.14352 31.0693 9.14365 29.3652 9.73741C27.4249 10.4134 25.7776 12.244 22.4831 15.9052L8 31.9999" stroke="white" stroke-width="2" stroke-linecap="round" stroke-linejoin="round"/>
</svg>
