<svg width="64" height="64" viewBox="0 0 64 64" fill="none" xmlns="http://www.w3.org/2000/svg">
<path d="M26.6667 21.3333H37.3333C40.2789 21.3333 42.6667 23.7211 42.6667 26.6667C42.6667 29.6122 40.2789 32 37.3333 32M26.6667 21.3333V32M26.6667 21.3333H21.3333M26.6667 21.3333V16M37.3333 32H26.6667M37.3333 32C40.2789 32 42.6667 34.3878 42.6667 37.3333C42.6667 40.2789 40.2789 42.6667 37.3333 42.6667H26.6667M26.6667 32V42.6667M26.6667 42.6667H21.3333M26.6667 42.6667V48M34.6667 21.3333V16M34.6667 48V42.6667M56 32C56 45.2548 45.2548 56 32 56C18.7452 56 8 45.2548 8 32C8 18.7452 18.7452 8 32 8C45.2548 8 56 18.7452 56 32Z" stroke="white" stroke-width="2" stroke-linecap="round" stroke-linejoin="round"/>
</svg>
